# xmcd
#
# Track frame offsets: 
#        150
#        11700
#        24772
#        41277
#        55160
#        74130
#        90630
#        104002
#        124575
#        135027
#        148157
#
# Disc length: 2198 seconds
#
# Revision: 17
# Processed by: cddbd v1.5.2PL0 Copyright (c) Steve Scherf et al.
# Submitted via: ExactAudioCopyFreeDBPlugin 1.0
#
DISCID=9008940b
DTITLE=Garth Brooks - Garth Brooks
DYEAR=1989
DGENRE=Country
TTITLE0=Not Counting You
TTITLE1=I've Got A Good Thing Going
TTITLE2=If Tomorrow Never Comes
TTITLE3=Uptown Down-Home Good Ol' Boy
TTITLE4=Everytime That It Rains
TTITLE5=Alabama Clay
TTITLE6=Much Too Young (To Feel This Damn Old)
TTITLE7=Cowboy Bill
TTITLE8=Nobody Gets Off In This Town
TTITLE9=I Know One
TTITLE10=The Dance
EXTD=YEAR: 1998
EXTT0=
EXTT1=
EXTT2=
EXTT3=
EXTT4=
EXTT5=
EXTT6=
EXTT7=
EXTT8=
EXTT9=
EXTT10=
PLAYORDER=
